<?xml version="1.0" encoding="utf-8"?>
<!-- Generator: Adobe Illustrator 17.1.0, SVG Export Plug-In . SVG Version: 6.00 Build 0)  -->
<!DOCTYPE svg PUBLIC "-//W3C//DTD SVG 1.1//EN" "http://www.w3.org/Graphics/SVG/1.1/DTD/svg11.dtd">
<svg version="1.1" id="Layer_1" xmlns="http://www.w3.org/2000/svg" xmlns:xlink="http://www.w3.org/1999/xlink" x="0px" y="0px"
	 viewBox="0 0 120 30" enable-background="new 0 0 120 30" xml:space="preserve">
<g>
	<path fill="#673695" d="M32.5,6.5l0-0.4c-0.3-3-2.8-5.4-5.8-5.7l-0.1,0C23.4,0.1,20.3,0,17.2,0S11,0.1,7.9,0.4l-0.1,0
		c-3,0.3-5.5,2.7-5.8,5.7l0,0.4c-0.5,4-0.5,8,0,11.9l0,0.4c0.3,3,2.8,5.4,5.8,5.7l0.1,0c2.7,0.2,5.5,0.4,8.2,0.4v-4.6
		c-1.9-0.1-5.8-0.4-7-1.6c-1.6-1.6-2.7-5-2.7-8.3s0.9-5.6,3.1-5.6c3.2,0,4.3,3.6,7.6,3.6s4.5-3.6,7.6-3.6c2.3,0,3.1,2.2,3.1,5.6
		s-1.1,6.7-2.7,8.3c-1.2,1.2-5.1,1.5-7,1.6v7.2c0,1.6,1,2,2.2,0.9l4.1-3.8c0.7,0,1.3-0.1,2-0.2l0.1,0c3-0.3,5.5-2.7,5.8-5.7l0-0.4
		C32.9,14.5,32.9,10.4,32.5,6.5z"/>
	<path fill="#673695" d="M20.4,13.7c0-0.1,0.1-0.2,0.2-0.2h1c0.1,0,0.2-0.1,0.2-0.2v-1c0-0.1,0.1-0.2,0.2-0.2h0.9
		c0.1,0,0.2,0.1,0.2,0.2v1c0,0.1,0.1,0.2,0.2,0.2h1c0.1,0,0.2,0.1,0.2,0.2v0.9c0,0.1-0.1,0.2-0.2,0.2h-1c-0.1,0-0.2,0.1-0.2,0.2v1
		c0,0.1-0.1,0.2-0.2,0.2H22c-0.1,0-0.2-0.1-0.2-0.2v-1c0-0.1-0.1-0.2-0.2-0.2h-1c-0.1,0-0.2-0.1-0.2-0.2V13.7z M13.7,13.4
		c0.4,0,0.8,0.3,0.8,0.8c0,0.4-0.3,0.8-0.8,0.8c-0.4,0-0.8-0.3-0.8-0.8C12.9,13.7,13.2,13.4,13.7,13.4z M12.1,11.8
		c0.4,0,0.8,0.3,0.8,0.8c0,0.4-0.3,0.8-0.8,0.8s-0.8-0.3-0.8-0.8C11.3,12.1,11.7,11.8,12.1,11.8z M12.1,14.9c0.4,0,0.8,0.3,0.8,0.8
		c0,0.4-0.3,0.8-0.8,0.8s-0.8-0.3-0.8-0.8C11.3,15.3,11.7,14.9,12.1,14.9z M10.5,13.4c0.4,0,0.8,0.3,0.8,0.8c0,0.4-0.3,0.8-0.8,0.8
		c-0.4,0-0.8-0.3-0.8-0.8C9.8,13.7,10.1,13.4,10.5,13.4z"/>
</g>
<g>
	<path fill="#4C4C4C" d="M57.1,24.1c-0.5,0.1-1.1,0.2-1.9,0.2c-0.7,0-1.4-0.1-2-0.3c-0.6-0.2-1.2-0.6-1.7-1.1
		c-0.5-0.5-0.9-1.3-1.2-2.3c-0.3-1-0.4-2.2-0.4-3.6c0-1.4,0.1-2.6,0.4-3.6c0.3-1,0.7-1.7,1.2-2.2s1.1-0.9,1.7-1.1
		c0.6-0.2,1.3-0.3,2.2-0.3s1.5,0.1,2.1,0.3s1.2,0.6,1.7,1.1c1.1,1,1.6,3,1.6,5.8c0,2.8-0.6,4.8-1.9,6v0.1l2.8,0.8l-0.8,2L57.1,24.1z
		 M53.5,21.7c0.3,0.2,0.6,0.3,0.9,0.4c0.3,0.1,0.8,0.1,1.4,0.1s1.1-0.1,1.5-0.3c0.9-0.5,1.3-2.1,1.3-4.8c0-1.1-0.1-2-0.2-2.7
		c-0.1-0.7-0.3-1.2-0.6-1.6c-0.3-0.4-0.6-0.6-0.9-0.7c-0.3-0.1-0.8-0.2-1.4-0.2s-1.1,0.1-1.4,0.2c-0.4,0.1-0.7,0.4-0.9,0.7
		c-0.3,0.4-0.5,0.9-0.6,1.6c-0.1,0.7-0.2,1.5-0.2,2.5s0,1.8,0.1,2.4c0.1,0.6,0.2,1.1,0.3,1.5C53,21.2,53.2,21.5,53.5,21.7z"/>
	<path fill="#4C4C4C" d="M63.9,20v-7.7h2.3v7.3c0,1.3,0.1,2,0.3,2.3c0.2,0.2,0.5,0.3,1,0.3c0.8,0,1.8-0.3,3-1v-8.9h2.3V24h-1.5
		L71,22.8h-0.1c0,0-0.2,0.1-0.5,0.3c-0.3,0.2-0.5,0.3-0.6,0.3c-0.1,0.1-0.3,0.1-0.6,0.3c-0.3,0.1-0.5,0.2-0.7,0.3
		c-0.6,0.2-1.1,0.3-1.5,0.3C64.9,24.3,63.9,22.8,63.9,20z"/>
	<path fill="#4C4C4C" d="M76,10.7V8.9h2.7v1.9H76z M76.2,24V12.3h2.3V24H76.2z"/>
	<path fill="#4C4C4C" d="M81.8,8.9h2.3v3.6c1.1-0.3,2.1-0.4,2.8-0.4c2.6,0,4,2,4,5.9c0,4.2-1.4,6.3-4.3,6.3c-0.6,0-1.4-0.1-2.3-0.2
		c-0.9-0.2-1.8-0.4-2.4-0.6V8.9z M84.1,22.1c0.8,0.2,1.5,0.3,2.2,0.3c0.7,0,1.1-0.1,1.4-0.3c0.5-0.5,0.8-1.9,0.8-4.4
		c0-1.3-0.1-2.2-0.2-2.8c-0.1-0.3-0.2-0.5-0.4-0.6c-0.2-0.1-0.4-0.2-0.5-0.2c-0.1,0-0.4,0-0.8,0c-0.7,0-1.6,0.1-2.5,0.4V22.1z"/>
	<path fill="#4C4C4C" d="M93.7,8.9H96v3.6c1.1-0.3,2.1-0.4,2.8-0.4c2.6,0,4,2,4,5.9c0,4.2-1.4,6.3-4.3,6.3c-0.6,0-1.4-0.1-2.3-0.2
		c-0.9-0.2-1.8-0.4-2.4-0.6V8.9z M96,22.1c0.8,0.2,1.5,0.3,2.2,0.3c0.7,0,1.1-0.1,1.4-0.3c0.5-0.5,0.8-1.9,0.8-4.4
		c0-1.3-0.1-2.2-0.2-2.8c-0.1-0.3-0.2-0.5-0.4-0.6c-0.2-0.1-0.4-0.2-0.5-0.2c-0.1,0-0.4,0-0.8,0c-0.7,0-1.6,0.1-2.5,0.4V22.1z"/>
	<path fill="#4C4C4C" d="M105.5,24V8.9h2.3V24H105.5z"/>
	<path fill="#4C4C4C" d="M115.6,24.3c-3.3,0-5-2-5-6.1c0-4.1,1.7-6.1,5-6.1c1.5,0,2.6,0.4,3.3,1.3c0.7,0.9,1.1,2.3,1.1,4.2V19h-7
		c0,1.5,0.3,2.5,0.8,2.9c0.3,0.3,0.8,0.4,1.3,0.4c1.1,0,2.2-0.2,3.4-0.6l0.6-0.2l0.6,1.8C118.4,23.9,117,24.3,115.6,24.3z
		 M117.6,16.6c0-0.1,0-0.3,0-0.5c0-0.3,0-0.4,0-0.5c0-0.1,0-0.2-0.1-0.4c0-0.2-0.1-0.3-0.1-0.4c0,0-0.1-0.1-0.2-0.3
		c-0.1-0.1-0.2-0.2-0.3-0.3c-0.1,0-0.2-0.1-0.3-0.1c-0.2-0.1-0.5-0.1-1.1-0.1c-0.5,0-1,0.1-1.3,0.2c-0.3,0.1-0.6,0.3-0.8,0.6
		c-0.2,0.3-0.3,0.6-0.4,1c-0.1,0.4-0.1,0.9-0.1,1.5l4.6-0.1V16.6z"/>
</g>
</svg>
