<?xml version="1.0" encoding="utf-8"?>
<!-- Generator: Adobe Illustrator 17.1.0, SVG Export Plug-In . SVG Version: 6.00 Build 0)  -->
<!DOCTYPE svg PUBLIC "-//W3C//DTD SVG 1.1//EN" "http://www.w3.org/Graphics/SVG/1.1/DTD/svg11.dtd">
<svg version="1.1" id="Layer_1" xmlns="http://www.w3.org/2000/svg" xmlns:xlink="http://www.w3.org/1999/xlink" x="0px" y="0px"
	 viewBox="0 0 130 30" enable-background="new 0 0 130 30" xml:space="preserve">
<g>
	<path fill="#673695" d="M35.7,6.8V6.4c-0.3-3.1-2.8-5.5-5.9-5.8h-0.1c-3.3-0.3-6.4-0.4-9.6-0.4s-6.3,0.1-9.5,0.4h-0.1
		C7.5,0.9,5,3.3,4.7,6.4v0.4c-0.5,4.1-0.5,8.1,0,12.1v0.4c0.3,3.1,2.8,5.5,5.9,5.8h0.1c2.7,0.2,5.6,0.4,8.3,0.4v-4.7
		c-1.9-0.1-5.9-0.4-7.1-1.6c-1.6-1.6-2.7-5.1-2.7-8.4S10.1,5,12.3,5c3.3,0,4.4,3.7,7.7,3.7S24.6,5,27.8,5c2.3,0,3.2,2.2,3.2,5.7
		s-1.1,6.8-2.7,8.4c-1.2,1.2-5.2,1.5-7.1,1.6v7.3c0,1.6,1,2,2.2,0.9l4.2-3.9c0.7,0,1.3-0.1,2-0.2h0.1c3.1-0.3,5.6-2.7,5.9-5.8v-0.4
		C36.1,14.9,36.1,10.7,35.7,6.8z"/>
	<path fill="#673695" d="M23.4,14.1c0-0.1,0.1-0.2,0.2-0.2h1c0.1,0,0.2-0.1,0.2-0.2v-1c0-0.1,0.1-0.2,0.2-0.2h0.9
		c0.1,0,0.2,0.1,0.2,0.2v1c0,0.1,0.1,0.2,0.2,0.2h1c0.1,0,0.2,0.1,0.2,0.2V15c0,0.1-0.1,0.2-0.2,0.2h-1c-0.1,0-0.2,0.1-0.2,0.2v1
		c0,0.1-0.1,0.2-0.2,0.2H25c-0.1,0-0.2-0.1-0.2-0.2v-1c0-0.1-0.1-0.2-0.2-0.2h-1c-0.1,0-0.2-0.1-0.2-0.2
		C23.4,15,23.4,14.1,23.4,14.1z M16.6,13.8c0.4,0,0.8,0.3,0.8,0.8c0,0.4-0.3,0.8-0.8,0.8c-0.4,0-0.8-0.3-0.8-0.8
		C15.8,14.1,16.1,13.8,16.6,13.8z M15,12.2c0.4,0,0.8,0.3,0.8,0.8c0,0.4-0.3,0.8-0.8,0.8c-0.5,0-0.8-0.3-0.8-0.8S14.5,12.2,15,12.2z
		 M15,15.3c0.4,0,0.8,0.3,0.8,0.8c0,0.4-0.3,0.8-0.8,0.8c-0.5,0-0.8-0.3-0.8-0.8C14.1,15.7,14.5,15.3,15,15.3z M13.3,13.8
		c0.4,0,0.8,0.3,0.8,0.8c0,0.4-0.3,0.8-0.8,0.8c-0.4,0-0.8-0.3-0.8-0.8C12.6,14.1,12.9,13.8,13.3,13.8z"/>
</g>
<g>
	<path fill="#4C4C4C" d="M61.1,25.5c-0.5,0.1-1.2,0.2-2,0.2c-0.7,0-1.5-0.1-2.1-0.3c-0.6-0.2-1.3-0.6-1.8-1.2
		c-0.5-0.5-1-1.4-1.3-2.5s-0.4-2.4-0.4-3.9s0.1-2.8,0.4-3.9c0.3-1.1,0.7-1.8,1.3-2.4c0.5-0.5,1.2-1,1.8-1.2c0.6-0.2,1.4-0.3,2.4-0.3
		c1,0,1.6,0.1,2.2,0.3s1.3,0.6,1.8,1.2c1.2,1.1,1.7,3.2,1.7,6.2s-0.6,5.1-2,6.4v0.1l3,0.9l-0.9,2.1L61.1,25.5z M57.3,22.9
		c0.3,0.2,0.6,0.3,1,0.4s0.9,0.1,1.5,0.1s1.2-0.1,1.6-0.3c1-0.5,1.4-2.2,1.4-5.1c0-1.2-0.1-2.1-0.2-2.9c-0.1-0.7-0.3-1.3-0.6-1.7
		c-0.3-0.4-0.6-0.6-1-0.7c-0.3-0.1-0.9-0.2-1.5-0.2c-0.6,0-1.2,0.1-1.5,0.2c-0.4,0.1-0.7,0.4-1,0.7c-0.3,0.4-0.5,1-0.6,1.7
		c-0.1,0.7-0.2,1.6-0.2,2.7s0,1.9,0.1,2.6s0.2,1.2,0.3,1.6C56.7,22.4,57,22.7,57.3,22.9z"/>
	<path fill="#4C4C4C" d="M68.4,21.1v-8.2h2.5v7.8c0,1.4,0.1,2.1,0.3,2.5c0.2,0.2,0.5,0.3,1.1,0.3c0.9,0,1.9-0.3,3.2-1.1v-9.5h2.5
		v12.5h-1.6L76,24.1h-0.1c0,0-0.2,0.1-0.5,0.3c-0.3,0.2-0.5,0.3-0.6,0.3c-0.1,0.1-0.3,0.1-0.6,0.3c-0.3,0.1-0.5,0.2-0.7,0.3
		c-0.6,0.2-1.2,0.3-1.6,0.3C69.5,25.7,68.4,24.1,68.4,21.1z"/>
	<path fill="#4C4C4C" d="M81.4,11.1V9.2h2.9v2h-2.9V11.1z M81.6,25.4V12.9H84v12.5H81.6z"/>
	<path fill="#4C4C4C" d="M87.6,9.2H90v3.9c1.2-0.3,2.2-0.4,3-0.4c2.8,0,4.3,2.1,4.3,6.3c0,4.5-1.5,6.7-4.6,6.7
		c-0.6,0-1.5-0.1-2.5-0.2c-1-0.2-1.9-0.4-2.6-0.6V9.2H87.6z M90,23.3c0.9,0.2,1.6,0.3,2.4,0.3s1.2-0.1,1.5-0.3
		c0.5-0.5,0.9-2,0.9-4.7c0-1.4-0.1-2.4-0.2-3c-0.1-0.3-0.2-0.5-0.4-0.6c-0.2-0.1-0.4-0.2-0.5-0.2s-0.4,0-0.9,0
		c-0.7,0-1.7,0.1-2.7,0.4V23.3z"/>
	<path fill="#4C4C4C" d="M100.3,9.2h2.5v3.9c1.2-0.3,2.2-0.4,3-0.4c2.8,0,4.3,2.1,4.3,6.3c0,4.5-1.5,6.7-4.6,6.7
		c-0.6,0-1.5-0.1-2.5-0.2c-1-0.2-1.9-0.4-2.6-0.6V9.2H100.3z M102.8,23.3c0.9,0.2,1.6,0.3,2.4,0.3s1.2-0.1,1.5-0.3
		c0.5-0.5,0.9-2,0.9-4.7c0-1.4-0.1-2.4-0.2-3c-0.1-0.3-0.2-0.5-0.4-0.6c-0.2-0.1-0.4-0.2-0.5-0.2s-0.4,0-0.9,0
		c-0.7,0-1.7,0.1-2.7,0.4V23.3z"/>
	<path fill="#4C4C4C" d="M112.9,25.4V9.2h2.5v16.2H112.9z"/>
	<path fill="#4C4C4C" d="M123.7,25.7c-3.5,0-5.4-2.1-5.4-6.5s1.8-6.5,5.4-6.5c1.6,0,2.8,0.4,3.5,1.4s1.2,2.5,1.2,4.5V20H121
		c0,1.6,0.3,2.7,0.9,3.1c0.3,0.3,0.9,0.4,1.4,0.4c1.2,0,2.4-0.2,3.6-0.6l0.6-0.2l0.6,1.9C126.7,25.3,125.2,25.7,123.7,25.7z
		 M125.9,17.5c0-0.1,0-0.3,0-0.5c0-0.3,0-0.4,0-0.5s0-0.2-0.1-0.4c0-0.2-0.1-0.3-0.1-0.4c0,0-0.1-0.1-0.2-0.3
		c-0.1-0.1-0.2-0.2-0.3-0.3c-0.1,0-0.2-0.1-0.3-0.1c-0.2-0.1-0.5-0.1-1.2-0.1c-0.5,0-1.1,0.1-1.4,0.2c-0.3,0.1-0.6,0.3-0.9,0.6
		c-0.2,0.3-0.3,0.6-0.4,1.1c-0.1,0.4-0.1,1-0.1,1.6l4.9-0.1v-0.6H125.9z"/>
</g>
</svg>
